<?xml version="1.0" standalone="no"?><!DOCTYPE svg PUBLIC "-//W3C//DTD SVG 1.1//EN" "http://www.w3.org/Graphics/SVG/1.1/DTD/svg11.dtd"><svg t="1722143701878" class="icon" viewBox="0 0 1024 1024" version="1.1" xmlns="http://www.w3.org/2000/svg" p-id="4457" xmlns:xlink="http://www.w3.org/1999/xlink" width="200" height="200"><path d="M836.949333 867.669333H185.685333c-22.869333 0-41.301333-18.773333-41.301333-41.301333V175.445333c0-22.869333 18.773333-41.301333 41.301333-41.301333h651.264c22.869333 0 41.301333 18.773333 41.301334 41.301333v651.264c0 22.528-18.773333 40.96-41.301334 40.96z" fill="#F2F2F2" p-id="4458"></path><path d="M665.941333 320.170667h-309.248c-28.330667 0.341333-51.541333 23.210667-51.541333 51.882666v258.389334c0 28.330667 23.210667 51.541333 51.541333 51.541333H665.6c28.330667-0.341333 51.541333-23.210667 51.541333-51.541333V372.053333c0.341333-28.672-22.869333-51.882667-51.2-51.882666z m25.6 280.576l-61.781333-79.189334c-5.461333-9.898667-18.090667-13.312-27.989333-7.509333-2.389333 1.365333-4.437333 3.072-5.802667 5.12l-45.056 45.397333-8.874667 8.874667-18.090666 18.090667-12.970667-16.725334-61.44-79.189333c-6.485333-8.533333-18.432-10.24-26.965333-4.096-1.365333 1.024-2.730667 2.389333-4.096 4.096L331.093333 601.770667v-230.058667c-1.024-13.312 9.216-24.917333 22.869334-25.941333h312.32c13.653333 1.024 24.917333 11.946667 25.6 25.941333l-0.341334 229.034667z m-88.405333-191.829334c-15.018667-15.018667-39.936-15.018667-54.954667 0-15.018667 15.018667-15.018667 39.936 0 54.954667 15.018667 15.018667 39.594667 15.018667 54.954667 0 15.018667-15.018667 15.018667-39.594667 0-54.954667z" fill="#A9A9A9" p-id="4459"></path><path d="M548.864 555.690667l26.965333 30.378666-52.565333 95.914667h-66.56l75.434667-74.069333-9.216-19.114667 25.941333-33.109333z" fill="#F2F2F2" p-id="4460"></path></svg>